<?xml version="1.0" encoding="UTF-8" standalone="no"?><!DOCTYPE svg PUBLIC "-//W3C//DTD SVG 1.1//EN" "http://www.w3.org/Graphics/SVG/1.1/DTD/svg11.dtd"><svg width="100%" height="100%" viewBox="0 0 391 154" version="1.1" xmlns="http://www.w3.org/2000/svg" xmlns:xlink="http://www.w3.org/1999/xlink" xml:space="preserve" xmlns:serif="http://www.serif.com/" style="fill-rule:evenodd;clip-rule:evenodd;stroke-linecap:round;stroke-linejoin:round;stroke-miterlimit:1.5;"><rect id="Artboard1" x="0" y="0" width="390.805" height="153.6" style="fill:none;"/><path d="M59.76,58.826l11.657,0c4.75,0 8.208,0.922 10.375,2.766c2.166,1.844 3.25,4.776 3.25,8.797c0,2.646 -0.573,4.859 -1.719,6.64c-1.146,1.782 -2.708,2.86 -4.688,3.235l0,0.312c2.584,0.646 4.448,1.854 5.594,3.625c1.146,1.771 1.719,4.125 1.719,7.063c0,4.146 -1.109,7.39 -3.328,9.734c-2.219,2.344 -5.255,3.516 -9.11,3.516l-13.75,0l0,-45.688Zm8,18.375l3.907,0c1.791,0 3.052,-0.479 3.781,-1.437c0.729,-0.959 1.094,-2.386 1.094,-4.282c0,-1.895 -0.417,-3.255 -1.25,-4.078c-0.834,-0.823 -2.146,-1.234 -3.938,-1.234l-3.594,0l0,11.031Zm0,7.094l0,12.781l4.282,0c1.771,0 3.088,-0.541 3.953,-1.625c0.864,-1.083 1.297,-2.76 1.297,-5.031c0,-4.083 -1.792,-6.125 -5.375,-6.125l-4.157,0Z" style="fill-rule:nonzero;"/><path d="M92.198,104.514l0,-45.688l8.5,0l0,38.25l11.781,0l0,7.438l-20.281,0Z" style="fill-rule:nonzero;"/><path d="M149.354,81.607c0,7.563 -1.416,13.375 -4.25,17.438c-2.833,4.062 -6.885,6.094 -12.156,6.094c-5.292,0 -9.354,-2.026 -12.188,-6.078c-2.833,-4.052 -4.25,-9.891 -4.25,-17.516c0,-7.563 1.417,-13.359 4.25,-17.391c2.834,-4.031 6.917,-6.047 12.25,-6.047c5.271,0 9.313,2.027 12.125,6.079c2.813,4.052 4.219,9.859 4.219,17.421Zm-24.156,0c0,5.209 0.656,9.178 1.969,11.907c1.312,2.729 3.239,4.093 5.781,4.093c5.125,0 7.687,-5.333 7.687,-16c0,-10.666 -2.541,-16 -7.625,-16c-2.583,0 -4.531,1.36 -5.843,4.079c-1.313,2.718 -1.969,6.692 -1.969,11.921Z" style="fill-rule:nonzero;"/><path d="M171.167,65.607c-2.438,0 -4.36,1.428 -5.766,4.282c-1.406,2.854 -2.109,6.823 -2.109,11.906c0,10.583 2.76,15.875 8.281,15.875c2.417,0 4.948,-0.771 7.594,-2.313l0,7.563c-2.229,1.479 -5.084,2.219 -8.563,2.219c-5.146,0 -9.099,-2.047 -11.859,-6.141c-2.761,-4.094 -4.141,-9.849 -4.141,-17.266c0,-7.416 1.422,-13.197 4.266,-17.343c2.844,-4.146 6.797,-6.219 11.859,-6.219c1.667,0 3.266,0.229 4.797,0.687c1.531,0.459 3.172,1.261 4.922,2.407l-2.813,6.906c-0.937,-0.646 -1.937,-1.234 -3,-1.766c-1.062,-0.531 -2.218,-0.797 -3.468,-0.797Z" style="fill-rule:nonzero;"/><path d="M214.104,104.514l-9.062,0l-7.5,-19.532l-3.407,3.407l0,16.125l-8.5,0l0,-45.688l8.5,0l0,22.656l2.969,-6.843l7.781,-15.813l9.094,0l-10.562,19.781l10.687,25.907Z" style="fill-rule:nonzero;"/><path d="M252.698,104.514l-8.375,0l0,-26.813c0,-2.916 0.146,-6.271 0.437,-10.062c-0.145,0.208 -0.682,0.843 -1.609,1.906c-0.927,1.062 -2.734,2.969 -5.422,5.719l-4.75,-5.188l12.156,-11.25l7.563,0l0,45.688Z" style="fill-rule:nonzero;"/><path d="M274.385,58.232c3.563,0 6.407,1.011 8.532,3.032c2.125,2.021 3.187,4.771 3.187,8.25c0,2.146 -0.495,4.088 -1.484,5.828c-0.99,1.739 -2.672,3.401 -5.047,4.984c2.667,1.896 4.562,3.839 5.687,5.828c1.125,1.99 1.688,4.162 1.688,6.516c0,3.729 -1.146,6.74 -3.438,9.031c-2.291,2.292 -5.333,3.438 -9.125,3.438c-3.937,0 -7.02,-1.058 -9.25,-3.172c-2.229,-2.115 -3.343,-5.13 -3.343,-9.047c0,-2.625 0.557,-4.943 1.672,-6.953c1.114,-2.011 2.838,-3.766 5.171,-5.266c-2.166,-1.729 -3.713,-3.474 -4.64,-5.234c-0.927,-1.761 -1.391,-3.745 -1.391,-5.953c0,-3.417 1.099,-6.151 3.297,-8.203c2.198,-2.052 5.026,-3.079 8.484,-3.079Zm-4.531,34.25c0,1.834 0.38,3.292 1.141,4.375c0.76,1.084 1.849,1.625 3.265,1.625c1.542,0 2.693,-0.541 3.454,-1.625c0.76,-1.083 1.14,-2.541 1.14,-4.375c0,-1.312 -0.302,-2.552 -0.906,-3.718c-0.604,-1.167 -1.771,-2.511 -3.5,-4.032l-0.438,-0.437c-1.354,1 -2.385,2.141 -3.093,3.422c-0.709,1.281 -1.063,2.87 -1.063,4.765Zm4.469,-27.656c-1.188,0 -2.083,0.433 -2.688,1.297c-0.604,0.865 -0.906,2.099 -0.906,3.703c0,1.375 0.25,2.573 0.75,3.594c0.5,1.021 1.469,2.104 2.906,3.25c1.375,-1.063 2.318,-2.125 2.829,-3.188c0.51,-1.062 0.765,-2.281 0.765,-3.656c0,-3.333 -1.219,-5 -3.656,-5Z" style="fill-rule:nonzero;"/><path d="M316.479,81.67c0,8.271 -0.995,14.25 -2.984,17.937c-1.99,3.688 -5.193,5.532 -9.61,5.532c-4.416,0 -7.588,-1.854 -9.515,-5.563c-1.927,-3.708 -2.891,-9.677 -2.891,-17.906c0,-8.25 1.011,-14.24 3.031,-17.969c2.021,-3.729 5.188,-5.594 9.5,-5.594c4.396,0 7.573,1.823 9.532,5.469c1.958,3.646 2.937,9.677 2.937,18.094Zm-16.5,0c0,6.396 0.276,10.703 0.828,12.922c0.552,2.219 1.599,3.328 3.141,3.328c1.042,0 1.849,-0.479 2.422,-1.438c0.573,-0.958 0.984,-2.546 1.234,-4.765c0.25,-2.219 0.375,-5.568 0.375,-10.047c0,-6.292 -0.291,-10.583 -0.875,-12.875c-0.583,-2.292 -1.635,-3.438 -3.156,-3.438c-1.542,0 -2.589,1.141 -3.141,3.422c-0.552,2.282 -0.828,6.578 -0.828,12.891Z" style="fill-rule:nonzero;"/><rect x="40.175" y="35.501" width="296.506" height="90.41" style="fill:none;stroke:#000;stroke-width:5px;"/><circle cx="361.957" cy="21.891" r="8.749" style="fill:none;stroke:#000;stroke-width:5px;"/></svg>